<svg xmlns="http://www.w3.org/2000/svg" width="960" height="240" viewBox="0 0 960 240" role="img" aria-label="方案E 趋势箭头型 ETF Logo">
  <defs>
    <linearGradient id="e-card" x1="0" y1="0" x2="1" y2="1">
      <stop offset="0" stop-color="#0B1F2D"/>
      <stop offset="1" stop-color="#061522"/>
    </linearGradient>
    <linearGradient id="e-red" x1="0" y1="1" x2="1" y2="0">
      <stop offset="0" stop-color="#A91520"/>
      <stop offset="1" stop-color="#FF2F3A"/>
    </linearGradient>
    <linearGradient id="e-blue" x1="0" y1="0" x2="1" y2="1">
      <stop offset="0" stop-color="#18A8FF"/>
      <stop offset="1" stop-color="#00D6C8"/>
    </linearGradient>
    <filter id="e-shadow" x="-40%" y="-40%" width="180%" height="180%">
      <feDropShadow dx="0" dy="10" stdDeviation="9" flood-color="#000000" flood-opacity="0.48"/>
    </filter>
    <g id="e-icon">
      <rect x="20" y="24" width="120" height="112" rx="22" fill="#071724" stroke="#1F4E68" stroke-width="2.5" filter="url(#e-shadow)"/>
      <path d="M36 106 C49 83 64 94 76 76 C91 52 108 58 124 37" fill="none" stroke="#FF2F3A" stroke-width="8" stroke-linecap="round"/>
      <path d="M111 36 H129 V54" fill="none" stroke="#FF2F3A" stroke-width="8" stroke-linecap="round" stroke-linejoin="round"/>
      <path d="M36 93 C53 116 77 113 96 101 C111 91 121 94 132 104" fill="none" stroke="url(#e-blue)" stroke-width="4" stroke-linecap="round" opacity="0.75"/>
      <path d="M38 122 H125" stroke="#1F4E68" stroke-width="2"/>
      <rect x="43" y="51" width="73" height="39" rx="8" fill="#061522" stroke="#FF4650" stroke-width="2"/>
      <text x="80" y="80" text-anchor="middle" font-family="Segoe UI, Arial, sans-serif" font-size="30" font-weight="900" fill="#EAF6FF">ETF</text>
      <circle cx="37" cy="106" r="5" fill="#00D6C8"/>
      <circle cx="124" cy="37" r="5" fill="#FF2F3A"/>
    </g>
  </defs>
  <rect width="960" height="240" rx="18" fill="#061522"/>
  <rect x="12" y="12" width="936" height="216" rx="16" fill="url(#e-card)" stroke="#16384D"/>
  <use href="#e-icon" transform="translate(34 40)"/>
  <text x="220" y="78" font-family="Microsoft YaHei UI, Microsoft YaHei, Segoe UI, Arial, sans-serif" font-size="34" font-weight="800" fill="#EAF6FF">跨境ETF智能投资决策系统</text>
  <text x="720" y="78" font-family="Segoe UI, Arial, sans-serif" font-size="34" font-weight="900" fill="#FF2F3A">V8</text>
  <text x="222" y="116" font-family="Microsoft YaHei UI, Microsoft YaHei, Segoe UI, Arial, sans-serif" font-size="18" fill="#9FB7C8">智能决策 · 精准量化 · 风险守护</text>
  <path d="M222 146 H604" stroke="#1F4E68" stroke-width="1"/>
  <text x="222" y="176" font-family="Microsoft YaHei UI, Microsoft YaHei, Segoe UI, Arial, sans-serif" font-size="16" fill="#FF4650">趋势箭头型 · 回撤与上升趋势并置 · 决策信号感</text>
  <rect x="806" y="38" width="116" height="116" rx="18" fill="#061927" stroke="#1F4E68"/>
  <use href="#e-icon" transform="translate(784 28) scale(0.72)"/>
  <text x="864" y="185" text-anchor="middle" font-family="Microsoft YaHei UI, Microsoft YaHei, Segoe UI, Arial, sans-serif" font-size="14" fill="#7FA6BE">单独图标预览</text>
</svg>
