<svg xmlns="http://www.w3.org/2000/svg" width="960" height="240" viewBox="0 0 960 240" role="img" aria-label="方案B 全球跨境型 ETF Logo">
  <defs>
    <radialGradient id="b-globe" cx="45%" cy="40%" r="65%">
      <stop offset="0" stop-color="#123E5A"/>
      <stop offset="0.7" stop-color="#071B2A"/>
      <stop offset="1" stop-color="#05111C"/>
    </radialGradient>
    <linearGradient id="b-red" x1="0" y1="0" x2="1" y2="1">
      <stop offset="0" stop-color="#FF3845"/>
      <stop offset="1" stop-color="#B91F2B"/>
    </linearGradient>
    <linearGradient id="b-orbit" x1="0" y1="0" x2="1" y2="0">
      <stop offset="0" stop-color="#00D6C8"/>
      <stop offset="1" stop-color="#18A8FF"/>
    </linearGradient>
    <filter id="b-shadow" x="-40%" y="-40%" width="180%" height="180%">
      <feDropShadow dx="0" dy="10" stdDeviation="9" flood-color="#000000" flood-opacity="0.5"/>
    </filter>
    <g id="b-icon">
      <circle cx="80" cy="80" r="58" fill="url(#b-globe)" stroke="#1F4E68" stroke-width="2.5" filter="url(#b-shadow)"/>
      <ellipse cx="80" cy="80" rx="58" ry="22" fill="none" stroke="#00D6C8" stroke-width="2" opacity="0.6"/>
      <ellipse cx="80" cy="80" rx="25" ry="58" fill="none" stroke="#18A8FF" stroke-width="1.7" opacity="0.55"/>
      <path d="M22 91 C52 36 112 26 139 61" fill="none" stroke="url(#b-orbit)" stroke-width="5" stroke-linecap="round"/>
      <path d="M130 49 L146 63 L126 68 Z" fill="#18A8FF"/>
      <path d="M137 99 C106 139 47 134 21 101" fill="none" stroke="url(#b-red)" stroke-width="6" stroke-linecap="round"/>
      <path d="M30 113 L14 99 L34 94 Z" fill="#FF3845"/>
      <rect x="45" y="58" width="70" height="44" rx="8" fill="#061522" stroke="#FF4650" stroke-width="2"/>
      <text x="80" y="88" text-anchor="middle" font-family="Segoe UI, Arial, sans-serif" font-size="30" font-weight="900" fill="#EAF6FF">ETF</text>
    </g>
  </defs>
  <rect width="960" height="240" rx="18" fill="#061522"/>
  <rect x="12" y="12" width="936" height="216" rx="16" fill="#081B29" stroke="#16384D"/>
  <use href="#b-icon" transform="translate(34 40)"/>
  <text x="220" y="78" font-family="Microsoft YaHei UI, Microsoft YaHei, Segoe UI, Arial, sans-serif" font-size="34" font-weight="800" fill="#EAF6FF">跨境ETF智能投资决策系统</text>
  <text x="720" y="78" font-family="Segoe UI, Arial, sans-serif" font-size="34" font-weight="900" fill="#FF2F3A">V8</text>
  <text x="222" y="116" font-family="Microsoft YaHei UI, Microsoft YaHei, Segoe UI, Arial, sans-serif" font-size="18" fill="#9FB7C8">智能决策 · 精准量化 · 风险守护</text>
  <path d="M222 146 H604" stroke="#1F4E68" stroke-width="1"/>
  <text x="222" y="176" font-family="Microsoft YaHei UI, Microsoft YaHei, Segoe UI, Arial, sans-serif" font-size="16" fill="#18A8FF">全球跨境型 · 双向资金轨道 · ETF 全球配置</text>
  <rect x="806" y="38" width="116" height="116" rx="18" fill="#061927" stroke="#1F4E68"/>
  <use href="#b-icon" transform="translate(784 28) scale(0.72)"/>
  <text x="864" y="185" text-anchor="middle" font-family="Microsoft YaHei UI, Microsoft YaHei, Segoe UI, Arial, sans-serif" font-size="14" fill="#7FA6BE">单独图标预览</text>
</svg>
